<svg fill="none" height="24" viewBox="0 0 24 24" width="24" xmlns="http://www.w3.org/2000/svg"><g fill="#1c274c"><g clip-rule="evenodd" fill-rule="evenodd"><path d="m10.8011 2.56967c.0781.38477-.1706.75999-.5553.83809-3.43421.69705-6.14099 3.4038-6.83809 6.83794-.07811.3848-.45334.6334-.8381.5553-.38477-.0781-.63337-.4533-.55526-.8381.81069-3.99378 3.95482-7.13787 7.94862-7.9485.38473-.0781.76003.1705.83813.55527z"/><path d="m2.56976 13.199c.38476-.0781.75999.1705.8381.5553.6971 3.4342 3.40388 6.1409 6.83804 6.838.3848.0781.6334.4533.5553.8381-.0781.3847-.4533.6334-.83808.5553-3.9938-.8107-7.13793-3.9548-7.94862-7.9486-.0781-.3847.17049-.7599.55526-.8381z"/><path d="m13.1989 2.56962c.0781-.38477.4534-.63337.8381-.55527 3.9938.81063 7.138 3.95472 7.9487 7.9485.0781.38475-.1705.75995-.5553.83815-.3848.0781-.76-.1705-.8381-.5553-.6971-3.43419-3.4039-6.14094-6.8381-6.83799-.3847-.0781-.6334-.45332-.5553-.83809z"/><path d="m21.4304 13.199c.3848.0782.6334.4534.5553.8381-.8107 3.9938-3.9549 7.1379-7.9487 7.9486-.3847.078-.76-.1706-.8381-.5553-.0781-.3848.1706-.76.5553-.8381 3.4342-.6971 6.141-3.4038 6.8381-6.838.0781-.3848.4533-.6334.8381-.5553z"/></g><path d="m11.9998 19.5826c4.1879 0 7.5828-3.3949 7.5828-7.5828 0-4.18787-3.3949-7.58281-7.5828-7.58281-4.18787 0-7.58281 3.39494-7.58281 7.58281 0 4.1879 3.39494 7.5828 7.58281 7.5828z" opacity=".5"/><path d="m8.94088 14.5385c.2338-.3154.67902-.3816.99443-.1478.58959.4371 1.30039.6896 2.06479.6896s1.4752-.2525 2.0648-.6896c.3154-.2338.7606-.1676.9944.1478s.1676.7607-.1478.9944c-.8209.6086-1.8256.9692-2.9114.9692s-2.09049-.3606-2.91144-.9692c-.31541-.2337-.38157-.679-.14778-.9944z"/><path d="m14.4882 11.6444c.458 0 .8294-.557.8294-1.2441 0-.68707-.3714-1.24405-.8294-1.24405s-.8294.55698-.8294 1.24405c0 .6871.3714 1.2441.8294 1.2441z"/><path d="m9.51199 11.6444c.45804 0 .82941-.557.82941-1.2441 0-.68707-.37137-1.24405-.82941-1.24405-.45805 0-.82937.55698-.82937 1.24405 0 .6871.37132 1.2441.82937 1.2441z"/></g></svg>